{
  "accessors": [
    {
      "bufferView": 2,
      "componentType": 5126,
      "count": 3170,
      "max": [
        0.30536872148513794,
        0.09245404601097107,
        0.06043359637260437
      ],
      "min": [
        -0.24463394284248352,
        -0.09195300936698914,
        -0.08697900176048279
      ],
      "type": "VEC3"
    },
    {
      "bufferView": 2,
      "byteOffset": 38040,
      "componentType": 5126,
      "count": 3170,
      "max": [
        1.0,
        1.0,
        1.0
      ],
      "min": [
        -1.0,
        -1.0,
        -1.0
      ],
      "type": "VEC3"
    },
    {
      "bufferView": 1,
      "componentType": 5126,
      "count": 3170,
      "max": [
        1.0,
        1.0
      ],
      "min": [
        0.0,
        0.0
      ],
      "type": "VEC2"
    },
    {
      "bufferView": 0,
      "componentType": 5125,
      "count": 14016,
      "type": "SCALAR"
    },
    {
      "bufferView": 2,
      "byteOffset": 76080,
      "componentType": 5126,
      "count": 2040,
      "max": [
        0.42549842596054077,
        0.17644301056861877,
        0.11846023797988892
      ],
      "min": [
        -0.27942216396331787,
        -0.1765344887971878,
        -0.19769085943698883
      ],
      "type": "VEC3"
    },
    {
      "bufferView": 2,
      "byteOffset": 100560,
      "componentType": 5126,
      "count": 2040,
      "max": [
        1.0,
        1.0,
        1.0
      ],
      "min": [
        -1.0,
        -1.0,
        -1.0
      ],
      "type": "VEC3"
    },
    {
      "bufferView": 1,
      "byteOffset": 25360,
      "componentType": 5126,
      "count": 2040,
      "max": [
        1.0,
        1.0
      ],
      "min": [
        0.0,
        0.0
      ],
      "type": "VEC2"
    },
    {
      "bufferView": 0,
      "byteOffset": 56064,
      "componentType": 5125,
      "count": 9408,
      "type": "SCALAR"
    },
    {
      "bufferView": 2,
      "byteOffset": 125040,
      "componentType": 5126,
      "count": 2550,
      "max": [
        0.16898289322853088,
        0.0904778242111206,
        0.05939774960279465
      ],
      "min": [
        -0.16887027025222778,
        -0.09080559015274048,
        -0.059397757053375244
      ],
      "type": "VEC3"
    },
    {
      "bufferView": 2,
      "byteOffset": 155640,
      "componentType": 5126,
      "count": 2550,
      "max": [
        1.0,
        1.0,
        1.0
      ],
      "min": [
        -1.0,
        -1.0,
        -1.0
      ],
      "type": "VEC3"
    },
    {
      "bufferView": 1,
      "byteOffset": 41680,
      "componentType": 5126,
      "count": 2550,
      "max": [
        1.0,
        1.0
      ],
      "min": [
        0.0,
        0.0
      ],
      "type": "VEC2"
    },
    {
      "bufferView": 0,
      "byteOffset": 93696,
      "componentType": 5125,
      "count": 11760,
      "type": "SCALAR"
    },
    {
      "bufferView": 2,
      "byteOffset": 186240,
      "componentType": 5126,
      "count": 1020,
      "max": [
        0.28717073798179626,
        0.03849512338638306,
        0.03843383491039276
      ],
      "min": [
        -0.28705811500549316,
        -0.03837251663208008,
        -0.03843384236097336
      ],
      "type": "VEC3"
    },
    {
      "bufferView": 2,
      "byteOffset": 198480,
      "componentType": 5126,
      "count": 1020,
      "max": [
        1.0,
        1.0,
        1.0
      ],
      "min": [
        -1.0,
        -1.0,
        -1.0
      ],
      "type": "VEC3"
    },
    {
      "bufferView": 1,
      "byteOffset": 62080,
      "componentType": 5126,
      "count": 1020,
      "max": [
        1.0,
        1.0
      ],
      "min": [
        0.0,
        0.0
      ],
      "type": "VEC2"
    },
    {
      "bufferView": 0,
      "byteOffset": 140736,
      "componentType": 5125,
      "count": 4704,
      "type": "SCALAR"
    },
    {
      "bufferView": 2,
      "byteOffset": 210720,
      "componentType": 5126,
      "count": 4,
      "max": [
        1.0,
        0.4696391224861145,
        2.1890446078032255e-07
      ],
      "min": [
        -1.0,
        -0.4696390926837921,
        -2.1890446078032255e-07
      ],
      "type": "VEC3"
    },
    {
      "bufferView": 2,
      "byteOffset": 210768,
      "componentType": 5126,
      "count": 4,
      "max": [
        -4.8619294760977524e-14,
        -4.661121977278526e-07,
        1.0
      ],
      "min": [
        -4.8619294760977524e-14,
        -4.661121977278526e-07,
        1.0
      ],
      "type": "VEC3"
    },
    {
      "bufferView": 1,
      "byteOffset": 70240,
      "componentType": 5126,
      "count": 4,
      "max": [
        0.9985010623931885,
        0.7901250720024109
      ],
      "min": [
        -0.0014989622868597507,
        0.30632367730140686
      ],
      "type": "VEC2"
    },
    {
      "bufferView": 0,
      "byteOffset": 159552,
      "componentType": 5125,
      "count": 6,
      "type": "SCALAR"
    },
    {
      "bufferView": 2,
      "byteOffset": 210816,
      "componentType": 5126,
      "count": 3790,
      "max": [
        0.37095439434051514,
        0.0905337706208229,
        0.08535615354776382
      ],
      "min": [
        -0.37101903557777405,
        -0.08997717499732971,
        -0.08535614609718323
      ],
      "type": "VEC3"
    },
    {
      "bufferView": 2,
      "byteOffset": 256296,
      "componentType": 5126,
      "count": 3790,
      "max": [
        1.0,
        1.0,
        1.0
      ],
      "min": [
        -1.0,
        -1.0,
        -1.0
      ],
      "type": "VEC3"
    },
    {
      "bufferView": 1,
      "byteOffset": 70272,
      "componentType": 5126,
      "count": 3790,
      "max": [
        1.0,
        1.0
      ],
      "min": [
        0.0,
        0.0
      ],
      "type": "VEC2"
    },
    {
      "bufferView": 0,
      "byteOffset": 159576,
      "componentType": 5125,
      "count": 16272,
      "type": "SCALAR"
    },
    {
      "bufferView": 2,
      "byteOffset": 301776,
      "componentType": 5126,
      "count": 3060,
      "max": [
        0.4050700068473816,
        0.17303778231143951,
        0.1939276158809662
      ],
      "min": [
        -0.4051346480846405,
        -0.17311549186706543,
        -0.1939276158809662
      ],
      "type": "VEC3"
    },
    {
      "bufferView": 2,
      "byteOffset": 338496,
      "componentType": 5126,
      "count": 3060,
      "max": [
        0.9999470114707947,
        1.0,
        1.0
      ],
      "min": [
        -0.9999470114707947,
        -1.0,
        -1.0
      ],
      "type": "VEC3"
    },
    {
      "bufferView": 1,
      "byteOffset": 100592,
      "componentType": 5126,
      "count": 3060,
      "max": [
        1.0,
        1.0
      ],
      "min": [
        0.0,
        0.0
      ],
      "type": "VEC2"
    },
    {
      "bufferView": 0,
      "byteOffset": 224664,
      "componentType": 5125,
      "count": 14112,
      "type": "SCALAR"
    },
    {
      "bufferView": 3,
      "componentType": 5126,
      "count": 103,
      "max": [
        14.583333015441895
      ],
      "min": [
        0.0416666679084301
      ],
      "type": "SCALAR"
    },
    {
      "bufferView": 4,
      "componentType": 5126,
      "count": 103,
      "max": [
        0.998890221118927,
        0.0,
        -0.0,
        1.0
      ],
      "min": [
        -1.0,
        0.0,
        -0.0,
        4.371138828673793e-08
      ],
      "type": "VEC4"
    },
    {
      "bufferView": 3,
      "byteOffset": 412,
      "componentType": 5126,
      "count": 103,
      "max": [
        14.583333015441895
      ],
      "min": [
        0.0416666679084301
      ],
      "type": "SCALAR"
    },
    {
      "bufferView": 4,
      "byteOffset": 1648,
      "componentType": 5126,
      "count": 103,
      "max": [
        0.998890221118927,
        0.0,
        -0.0,
        1.0
      ],
      "min": [
        -1.0,
        0.0,
        -0.0,
        4.371138828673793e-08
      ],
      "type": "VEC4"
    },
    {
      "bufferView": 3,
      "byteOffset": 824,
      "componentType": 5126,
      "count": 103,
      "max": [
        14.583333015441895
      ],
      "min": [
        0.0416666679084301
      ],
      "type": "SCALAR"
    },
    {
      "bufferView": 4,
      "byteOffset": 3296,
      "componentType": 5126,
      "count": 103,
      "max": [
        0.9997279047966003,
        0.0,
        -0.0,
        1.0
      ],
      "min": [
        -0.9997279047966003,
        0.0,
        -0.0,
        0.023325758054852486
      ],
      "type": "VEC4"
    }
  ],
  "animations": [
    {
      "channels": [
        {
          "sampler": 0,
          "target": {
            "node": 3,
            "path": "rotation"
          }
        },
        {
          "sampler": 1,
          "target": {
            "node": 6,
            "path": "rotation"
          }
        },
        {
          "sampler": 2,
          "target": {
            "node": 11,
            "path": "rotation"
          }
        }
      ],
      "name": "Animation",
      "samplers": [
        {
          "input": 28,
          "interpolation": "LINEAR",
          "output": 29
        },
        {
          "input": 30,
          "interpolation": "LINEAR",
          "output": 31
        },
        {
          "input": 32,
          "interpolation": "LINEAR",
          "output": 33
        }
      ]
    }
  ],
  "asset": {
    "extras": {
      "author": "Vera4Art (https://sketchfab.com/Elvera.Viljoen)",
      "license": "CC-BY-4.0 (http://creativecommons.org/licenses/by/4.0/)",
      "source": "https://sketchfab.com/3d-models/alkyne-properties-c08b2a6aac8e4dad840f1aef042856a6",
      "title": "Alkyne properties"
    },
    "generator": "Sketchfab-14.13.0",
    "version": "2.0"
  },
  "bufferViews": [
    {
      "buffer": 0,
      "byteLength": 281112,
      "name": "floatBufferViews",
      "target": 34963
    },
    {
      "buffer": 0,
      "byteLength": 125072,
      "byteOffset": 281112,
      "byteStride": 8,
      "name": "floatBufferViews",
      "target": 34962
    },
    {
      "buffer": 0,
      "byteLength": 375216,
      "byteOffset": 406184,
      "byteStride": 12,
      "name": "floatBufferViews",
      "target": 34962
    },
    {
      "buffer": 0,
      "byteLength": 1236,
      "byteOffset": 781400,
      "name": "floatBufferViews"
    },
    {
      "buffer": 0,
      "byteLength": 4944,
      "byteOffset": 782636,
      "byteStride": 16,
      "name": "floatBufferViews"
    }
  ],
  "buffers": [
    {
      "byteLength": 787580,
      "uri": "scene.bin"
    }
  ],
  "images": [
    {
      "uri": "textures/Table_baseColor.png"
    }
  ],
  "materials": [
    {
      "doubleSided": true,
      "name": "grey",
      "pbrMetallicRoughness": {
        "baseColorFactor": [
          0.14126329114027164,
          0.14126329114027164,
          0.14126329114027164,
          1.0
        ],
        "metallicFactor": 0.0,
        "roughnessFactor": 0.8
      }
    },
    {
      "doubleSided": true,
      "name": "white",
      "pbrMetallicRoughness": {
        "metallicFactor": 0.0,
        "roughnessFactor": 0.8
      }
    },
    {
      "doubleSided": true,
      "name": "grey.001",
      "pbrMetallicRoughness": {
        "baseColorFactor": [
          0.1424,
          0.1424,
          0.1424,
          1.0
        ],
        "metallicFactor": 0.0,
        "roughnessFactor": 0.8
      }
    },
    {
      "doubleSided": true,
      "name": "white.001",
      "pbrMetallicRoughness": {
        "metallicFactor": 0.0,
        "roughnessFactor": 0.8
      }
    },
    {
      "doubleSided": true,
      "name": "Table",
      "pbrMetallicRoughness": {
        "baseColorTexture": {
          "index": 0
        },
        "metallicFactor": 0.0,
        "roughnessFactor": 0.5
      }
    }
  ],
  "meshes": [
    {
      "name": "Object_0",
      "primitives": [
        {
          "attributes": {
            "NORMAL": 1,
            "POSITION": 0,
            "TEXCOORD_0": 2
          },
          "indices": 3,
          "material": 0,
          "mode": 4
        }
      ]
    },
    {
      "name": "Object_1",
      "primitives": [
        {
          "attributes": {
            "NORMAL": 5,
            "POSITION": 4,
            "TEXCOORD_0": 6
          },
          "indices": 7,
          "material": 1,
          "mode": 4
        }
      ]
    },
    {
      "name": "Object_2",
      "primitives": [
        {
          "attributes": {
            "NORMAL": 9,
            "POSITION": 8,
            "TEXCOORD_0": 10
          },
          "indices": 11,
          "material": 2,
          "mode": 4
        }
      ]
    },
    {
      "name": "Object_3",
      "primitives": [
        {
          "attributes": {
            "NORMAL": 13,
            "POSITION": 12,
            "TEXCOORD_0": 14
          },
          "indices": 15,
          "material": 3,
          "mode": 4
        }
      ]
    },
    {
      "name": "Object_4",
      "primitives": [
        {
          "attributes": {
            "NORMAL": 17,
            "POSITION": 16,
            "TEXCOORD_0": 18
          },
          "indices": 19,
          "material": 4,
          "mode": 4
        }
      ]
    },
    {
      "name": "Object_5",
      "primitives": [
        {
          "attributes": {
            "NORMAL": 21,
            "POSITION": 20,
            "TEXCOORD_0": 22
          },
          "indices": 23,
          "material": 0,
          "mode": 4
        }
      ]
    },
    {
      "name": "Object_6",
      "primitives": [
        {
          "attributes": {
            "NORMAL": 25,
            "POSITION": 24,
            "TEXCOORD_0": 26
          },
          "indices": 27,
          "material": 1,
          "mode": 4
        }
      ]
    }
  ],
  "nodes": [
    {
      "children": [
        1
      ],
      "matrix": [
        1.0,
        0.0,
        0.0,
        0.0,
        0.0,
        2.220446049250313e-16,
        -1.0,
        0.0,
        0.0,
        1.0,
        2.220446049250313e-16,
        0.0,
        0.0,
        0.0,
        0.0,
        1.0
      ],
      "name": "Sketchfab_model"
    },
    {
      "children": [
        2
      ],
      "name": "root"
    },
    {
      "children": [
        3,
        6,
        9,
        11
      ],
      "matrix": [
        1.0,
        0.0,
        0.0,
        0.0,
        0.0,
        2.220446049250313e-16,
        1.0,
        0.0,
        0.0,
        -1.0,
        2.220446049250313e-16,
        0.0,
        0.0,
        0.0,
        0.0,
        1.0
      ],
      "name": "GLTF_SceneRootNode"
    },
    {
      "children": [
        4,
        5
      ],
      "name": "propyne_0",
      "translation": [
        0.28608042001724243,
        0.2324531078338623,
        0.005326991900801659
      ]
    },
    {
      "mesh": 0,
      "name": "Object_4"
    },
    {
      "mesh": 1,
      "name": "Object_5"
    },
    {
      "children": [
        7,
        8
      ],
      "name": "Ethyne_1",
      "translation": [
        0.2915021479129791,
        0.6248263716697693,
        0.0
      ]
    },
    {
      "mesh": 2,
      "name": "Object_7"
    },
    {
      "mesh": 3,
      "name": "Object_8"
    },
    {
      "children": [
        10
      ],
      "matrix": [
        1.757877230644226,
        0.0,
        0.0,
        0.0,
        0.0,
        1.757877230644226,
        0.0,
        0.0,
        0.0,
        0.0,
        1.757877230644226,
        0.0,
        -1.979444980621338,
        0.2928420603275299,
        -0.0001047553596436046,
        1.0
      ],
      "name": "table_2"
    },
    {
      "mesh": 4,
      "name": "Object_10"
    },
    {
      "children": [
        12,
        13
      ],
      "name": "but-2-yne_3",
      "translation": [
        0.408183217048645,
        -0.17664062976837158,
        0.0
      ]
    },
    {
      "mesh": 5,
      "name": "Object_12"
    },
    {
      "mesh": 6,
      "name": "Object_13"
    }
  ],
  "samplers": [
    {
      "magFilter": 9729,
      "minFilter": 9987,
      "wrapS": 10497,
      "wrapT": 10497
    }
  ],
  "scene": 0,
  "scenes": [
    {
      "name": "Sketchfab_Scene",
      "nodes": [
        0
      ]
    }
  ],
  "textures": [
    {
      "sampler": 0,
      "source": 0
    }
  ]
}
