{
  "accessors": [
    {
      "bufferView": 1,
      "componentType": 5126,
      "count": 5568,
      "max": [
        1.054903507232666,
        0.391400009393692,
        0.5426504611968994
      ],
      "min": [
        -1.054903507232666,
        -0.3910999894142151,
        -0.5426504611968994
      ],
      "type": "VEC3"
    },
    {
      "bufferView": 1,
      "byteOffset": 66816,
      "componentType": 5126,
      "count": 5568,
      "max": [
        1.0,
        1.0,
        1.0
      ],
      "min": [
        -1.0,
        -1.0,
        -1.0
      ],
      "type": "VEC3"
    },
    {
      "bufferView": 0,
      "componentType": 5125,
      "count": 39696,
      "type": "SCALAR"
    },
    {
      "bufferView": 1,
      "byteOffset": 133632,
      "componentType": 5126,
      "count": 5424,
      "max": [
        1.4479999542236328,
        0.2538999915122986,
        1.1883000135421753
      ],
      "min": [
        -1.4479999542236328,
        -0.2557999789714813,
        -1.1883000135421753
      ],
      "type": "VEC3"
    },
    {
      "bufferView": 1,
      "byteOffset": 198720,
      "componentType": 5126,
      "count": 5424,
      "max": [
        1.0,
        1.0,
        1.0
      ],
      "min": [
        -1.0,
        -1.0,
        -1.0
      ],
      "type": "VEC3"
    },
    {
      "bufferView": 0,
      "byteOffset": 158784,
      "componentType": 5125,
      "count": 31584,
      "type": "SCALAR"
    }
  ],
  "asset": {
    "extras": {
      "author": "International Medical University (IMU) e-Learning (https://sketchfab.com/elearning.imu)",
      "license": "CC-BY-4.0 (http://creativecommons.org/licenses/by/4.0/)",
      "source": "https://sketchfab.com/3d-models/stereochemistry-ethene-ffb1ad45e92449269e320a4317a9fbda",
      "title": "Stereochemistry: Ethene"
    },
    "generator": "Sketchfab-15.19.0",
    "version": "2.0"
  },
  "bufferViews": [
    {
      "buffer": 0,
      "byteLength": 285120,
      "name": "floatBufferViews",
      "target": 34963
    },
    {
      "buffer": 0,
      "byteLength": 263808,
      "byteOffset": 285120,
      "byteStride": 12,
      "name": "floatBufferViews",
      "target": 34962
    }
  ],
  "buffers": [
    {
      "byteLength": 548928,
      "uri": "scene.bin"
    }
  ],
  "materials": [
    {
      "doubleSided": true,
      "name": "k909090",
      "pbrMetallicRoughness": {
        "baseColorFactor": [
          0.2581828529215958,
          0.2581828529215958,
          0.2581828529215958,
          1.0
        ],
        "metallicFactor": 0.0,
        "roughnessFactor": 0.9106721441304432
      }
    },
    {
      "doubleSided": true,
      "name": "kffffff",
      "pbrMetallicRoughness": {
        "metallicFactor": 0.0,
        "roughnessFactor": 0.9106721441304432
      }
    }
  ],
  "meshes": [
    {
      "name": "Object_0",
      "primitives": [
        {
          "attributes": {
            "NORMAL": 1,
            "POSITION": 0
          },
          "indices": 2,
          "material": 0,
          "mode": 4
        }
      ]
    },
    {
      "name": "Object_1",
      "primitives": [
        {
          "attributes": {
            "NORMAL": 4,
            "POSITION": 3
          },
          "indices": 5,
          "material": 1,
          "mode": 4
        }
      ]
    }
  ],
  "nodes": [
    {
      "children": [
        1
      ],
      "matrix": [
        1.0,
        0.0,
        0.0,
        0.0,
        0.0,
        2.220446049250313e-16,
        -1.0,
        0.0,
        0.0,
        1.0,
        2.220446049250313e-16,
        0.0,
        0.0,
        0.0,
        0.0,
        1.0
      ],
      "name": "Sketchfab_model"
    },
    {
      "children": [
        2,
        3
      ],
      "name": "ethene.obj.cleaner.materialmerger.gles"
    },
    {
      "mesh": 0,
      "name": "Object_2"
    },
    {
      "mesh": 1,
      "name": "Object_3"
    }
  ],
  "scene": 0,
  "scenes": [
    {
      "name": "Sketchfab_Scene",
      "nodes": [
        0
      ]
    }
  ]
}
